<svg width="646" height="752" viewBox="0 0 646 752" fill="none" xmlns="http://www.w3.org/2000/svg">
<path d="M803.196 133.046C750.264 66.6173 700.034 4.50906 639.001 0.188483C577.968 -3.59203 505.593 50.4152 438.078 74.1783C370.564 98.4815 308.451 93.0808 236.615 109.823C164.78 127.105 83.2228 166.53 38.3933 232.959C-6.97633 299.388 -15.6182 393.361 31.3718 451.688C77.8217 510.016 180.443 532.699 251.739 582.926C323.034 633.152 363.002 710.923 422.955 739.006C482.908 767.09 562.305 746.027 614.156 697.961C666.547 650.435 691.392 576.445 745.944 512.716C800.495 449.528 884.753 396.061 898.796 333.413C912.839 271.304 856.127 200.015 803.196 133.046Z" fill="#F49739"/>
</svg>
