<svg xmlns="http://www.w3.org/2000/svg" viewBox="0 0 678.65 166.16"><defs><style>.cls-1{fill:#ffcf2b;}.cls-2{fill:#f49739;}.cls-3{fill:#04004d;}</style></defs><g id="Layer_2" data-name="Layer 2"><g id="Text"><path class="cls-1" d="M98.19,45.23h30.23a7.5,7.5,0,1,0,0-15H98.19a7.5,7.5,0,0,0,0,15Z"/><path class="cls-1" d="M102.35,152.42a7.6,7.6,0,0,0-1.29-.69,7.9,7.9,0,0,0-1.41-.43A7.5,7.5,0,0,0,94,152.42a7.42,7.42,0,0,0-1.15.93,7.52,7.52,0,0,0,0,10.61,7.42,7.42,0,0,0,1.15.93A7.59,7.59,0,0,0,96.72,166a7.33,7.33,0,0,0,1.47.15,7.16,7.16,0,0,0,1.46-.15,7.9,7.9,0,0,0,1.41-.43,7.6,7.6,0,0,0,1.29-.69,7.34,7.34,0,0,0,1.14-.93,7.5,7.5,0,0,0,0-10.61A7.34,7.34,0,0,0,102.35,152.42Z"/><path class="cls-1" d="M105.69,98.19a7.5,7.5,0,0,0-7.5-7.5H22.62a7.62,7.62,0,1,1,0-15.23H52.85a22.62,22.62,0,0,0,0-45.23,7.62,7.62,0,1,1,0-15.23H68A7.5,7.5,0,0,0,68,0H52.85a22.62,22.62,0,1,0,0,45.23,7.62,7.62,0,0,1,0,15.23H22.62a22.62,22.62,0,1,0,0,45.23H98.19A7.5,7.5,0,0,0,105.69,98.19Z"/><path class="cls-1" d="M158.65,90.69H128.42a7.5,7.5,0,1,0,0,15h30.23a7.5,7.5,0,1,0,0-15Z"/><path class="cls-2" d="M94,13.74a7.59,7.59,0,0,0,2.69,1.12,8.13,8.13,0,0,0,1.47.14,7.35,7.35,0,0,0,2.87-.57,7.6,7.6,0,0,0,1.29-.69,8,8,0,0,0,1.14-.93,7.55,7.55,0,0,0,2.2-5.31A7.16,7.16,0,0,0,105.54,6a7.9,7.9,0,0,0-.43-1.41,7.28,7.28,0,0,0-.69-1.29,7.29,7.29,0,0,0-2.07-2.07,7,7,0,0,0-1.29-.69A7.9,7.9,0,0,0,99.65.15a7.23,7.23,0,0,0-2.93,0,7.56,7.56,0,0,0-1.4.43A7.8,7.8,0,0,0,92.88,2.2a7.61,7.61,0,0,0-1.62,2.43A7.86,7.86,0,0,0,90.84,6a7.16,7.16,0,0,0-.15,1.46,7.58,7.58,0,0,0,2.19,5.31A8.06,8.06,0,0,0,94,13.74Z"/><path class="cls-2" d="M158.65,60.46H98.19a7.5,7.5,0,0,0,0,15h60.46a7.5,7.5,0,1,0,0-15Z"/><path class="cls-2" d="M128.42,120.93H52.85a22.62,22.62,0,1,0,0,45.23H68a7.5,7.5,0,1,0,0-15H52.85a7.62,7.62,0,1,1,0-15.23h75.57a7.5,7.5,0,1,0,0-15Z"/><g id="Text-2" data-name="Text"><path id="R" class="cls-3" d="M214.65,51.53a6.69,6.69,0,0,1,6.79-6.78h27.34c9.63,0,17.18,2.85,22.1,7.66a23.13,23.13,0,0,1,6.34,16.52v.22c0,12.25-7.11,19.69-17.39,22.86l14.66,18.48c1.31,1.64,2.19,3.07,2.19,5.15a6.35,6.35,0,0,1-6.46,6.23,7.68,7.68,0,0,1-6.56-3.5l-18.6-23.74H228.11V115.2a6.73,6.73,0,0,1-13.46,0ZM247.8,82.71c9.62,0,15.75-5,15.75-12.8v-.22c0-8.2-5.91-12.69-15.86-12.69H228.11V82.71Z"/><path id="e" class="cls-3" d="M312.59,122.64c-16.73,0-29.64-12.15-29.64-30v-.21c0-16.52,11.7-30.09,28.22-30.09,18.38,0,27.46,15.1,27.46,28.45a6.2,6.2,0,0,1-6.24,6.34h-36.2c1.42,9.41,8.09,14.66,16.62,14.66a20.79,20.79,0,0,0,13.68-5,4.9,4.9,0,0,1,3.39-1.21,5.21,5.21,0,0,1,5.25,5.36,5.8,5.8,0,0,1-1.75,4C328.13,119.69,321.56,122.64,312.59,122.64ZM325.72,88.4c-.87-8.54-5.91-15.21-14.66-15.21-8.09,0-13.78,6.24-15,15.21Z"/><path id="m" class="cls-3" d="M346.64,69.58a6.54,6.54,0,0,1,6.57-6.67,6.62,6.62,0,0,1,6.67,6.67v2.74c3.72-5.14,8.75-10,17.61-10,8.31,0,14.22,4,17.29,10.18,4.59-6.13,10.71-10.18,19.47-10.18,12.58,0,20.23,8,20.23,22.1v30.85a6.44,6.44,0,0,1-6.56,6.56,6.53,6.53,0,0,1-6.67-6.56V88.51c0-9.19-4.27-14.11-11.71-14.11-7.22,0-12.36,5-12.36,14.33v26.58a6.62,6.62,0,0,1-13.23,0V88.4c0-9-4.38-14-11.71-14s-12.36,5.46-12.36,14.33v26.58a6.62,6.62,0,0,1-13.24,0Z"/><path id="i" class="cls-3" d="M444.65,48c0-3.93,3.28-6.45,7.54-6.45s7.55,2.52,7.55,6.45v.66c0,3.94-3.28,6.56-7.55,6.56s-7.54-2.62-7.54-6.56Zm1,21.55a6.53,6.53,0,0,1,6.56-6.67,6.63,6.63,0,0,1,6.68,6.67v45.73a6.62,6.62,0,0,1-13.24,0Z"/><path id="n" class="cls-3" d="M470.3,69.58a6.54,6.54,0,0,1,6.57-6.67,6.62,6.62,0,0,1,6.67,6.67v2.85c3.72-5.36,9.08-10.07,18-10.07,13,0,20.56,8.76,20.56,22.1v30.85a6.44,6.44,0,0,1-6.56,6.56,6.53,6.53,0,0,1-6.67-6.56V88.51c0-9-4.49-14.11-12.36-14.11-7.66,0-13,5.36-13,14.33v26.58a6.62,6.62,0,0,1-13.24,0Z"/><path id="d" class="cls-3" d="M589.62,115.31a6.62,6.62,0,0,1-13.23,0V111.7c-4.27,6-10.29,10.83-19.7,10.83-13.56,0-26.8-10.83-26.8-30v-.22c0-19.15,13-30,26.8-30,9.52,0,15.54,4.71,19.7,10.18V47.49a6.62,6.62,0,0,1,13.23,0Zm-46.38-23v.22c0,11.15,7.66,18.48,16.63,18.48s16.73-7.43,16.73-18.48v-.22c0-11.16-7.87-18.49-16.73-18.49C550.79,73.85,543.24,80.85,543.24,92.34Z"/><path id="l" class="cls-3" d="M601.36,47.49a6.52,6.52,0,0,1,6.57-6.57,6.61,6.61,0,0,1,6.67,6.57v67.82a6.62,6.62,0,0,1-13.24,0Z"/><path id="e-2" data-name="e" class="cls-3" d="M652.62,122.64c-16.74,0-29.64-12.15-29.64-30v-.21c0-16.52,11.7-30.09,28.22-30.09,18.37,0,27.45,15.1,27.45,28.45a6.19,6.19,0,0,1-6.23,6.34H636.21c1.42,9.41,8.1,14.66,16.63,14.66a20.76,20.76,0,0,0,13.67-5,4.92,4.92,0,0,1,3.39-1.21,5.21,5.21,0,0,1,5.25,5.36,5.76,5.76,0,0,1-1.75,4C668.15,119.69,661.59,122.64,652.62,122.64ZM665.75,88.4c-.88-8.54-5.91-15.21-14.66-15.21-8.1,0-13.78,6.24-15,15.21Z"/></g></g></g></svg>