<svg width="300" height="74" viewBox="0 0 300 74" fill="none" xmlns="http://www.w3.org/2000/svg">
<g clip-path="url(#clip0_649:469)">
<path d="M43.4053 19.9936H56.7686C57.6479 19.9936 58.4912 19.6443 59.1129 19.0225C59.7347 18.4008 60.084 17.5575 60.084 16.6782C60.084 15.7989 59.7347 14.9556 59.1129 14.3339C58.4912 13.7121 57.6479 13.3628 56.7686 13.3628H43.4053C42.526 13.3628 41.6827 13.7121 41.061 14.3339C40.4392 14.9556 40.0899 15.7989 40.0899 16.6782C40.0899 17.5575 40.4392 18.4008 41.061 19.0225C41.6827 19.6443 42.526 19.9936 43.4053 19.9936V19.9936Z" fill="#FFCF2B"/>
<path d="M45.2443 67.377C45.0644 67.2573 44.8735 67.1551 44.674 67.072C44.4726 66.9894 44.264 66.9257 44.0507 66.8819C43.6223 66.7958 43.1811 66.7952 42.7525 66.8802C42.3239 66.9651 41.9163 67.134 41.5531 67.377C41.3704 67.4968 41.2001 67.6345 41.0448 67.7882C40.4247 68.4111 40.0766 69.2543 40.0766 70.1333C40.0766 71.0122 40.4247 71.8554 41.0448 72.4783C41.2001 72.632 41.3704 72.7697 41.5531 72.8895C41.9181 73.1298 42.3266 73.2964 42.7555 73.3801C42.9693 73.4241 43.187 73.4463 43.4053 73.4464C43.6222 73.4465 43.8384 73.4243 44.0507 73.3801C44.264 73.3363 44.4726 73.2727 44.674 73.1901C44.8735 73.107 45.0644 73.0048 45.2443 72.885C45.4256 72.7652 45.5944 72.6275 45.7482 72.4739C46.0563 72.166 46.3007 71.8005 46.4675 71.3981C46.6342 70.9957 46.72 70.5644 46.72 70.1288C46.72 69.6933 46.6342 69.262 46.4675 68.8596C46.3007 68.4572 46.0563 68.0916 45.7482 67.7837C45.5942 67.6317 45.4254 67.4955 45.2443 67.377V67.377Z" fill="#FFCF2B"/>
<path d="M46.7207 43.4051C46.7207 42.5258 46.3714 41.6825 45.7497 41.0607C45.1279 40.4389 44.2846 40.0896 43.4053 40.0896H9.99929C9.54696 40.106 9.09597 40.0311 8.67326 39.8693C8.25054 39.7075 7.86476 39.4622 7.53896 39.148C7.21317 38.8338 6.95403 38.4572 6.77704 38.0406C6.60005 37.624 6.50883 37.176 6.50883 36.7234C6.50883 36.2708 6.60005 35.8228 6.77704 35.4062C6.95403 34.9896 7.21317 34.613 7.53896 34.2988C7.86476 33.9846 8.25054 33.7393 8.67326 33.5775C9.09597 33.4157 9.54696 33.3408 9.99929 33.3572H23.3626C25.9776 33.3022 28.4669 32.2248 30.2968 30.3559C32.1268 28.4871 33.1516 25.9757 33.1516 23.3601C33.1516 20.7446 32.1268 18.2331 30.2968 16.3643C28.4669 14.4955 25.9776 13.4181 23.3626 13.3631C22.9103 13.3795 22.4593 13.3045 22.0366 13.1427C21.6138 12.981 21.2281 12.7356 20.9023 12.4214C20.5765 12.1072 20.3173 11.7306 20.1403 11.314C19.9633 10.8974 19.8721 10.4494 19.8721 9.99682C19.8721 9.5442 19.9633 9.09622 20.1403 8.67964C20.3173 8.26306 20.5765 7.88642 20.9023 7.57221C21.2281 7.25801 21.6138 7.01269 22.0366 6.85091C22.4593 6.68912 22.9103 6.61419 23.3626 6.63058H30.0597C30.939 6.63058 31.7823 6.28128 32.404 5.65952C33.0258 5.03776 33.3751 4.19447 33.3751 3.31517C33.3751 2.43587 33.0258 1.59259 32.404 0.970829C31.7823 0.34907 30.939 -0.000230963 30.0597 -0.000230982H23.3626C22.0321 -0.028211 20.7093 0.209686 19.472 0.699515C18.2346 1.18934 17.1074 1.92125 16.1565 2.85233C15.2057 3.78342 14.4502 4.89494 13.9345 6.12176C13.4187 7.34858 13.1531 8.66601 13.1531 9.99682C13.1531 11.3276 13.4187 12.6451 13.9345 13.8719C14.4502 15.0987 15.2057 16.2102 16.1565 17.1413C17.1074 18.0724 18.2346 18.8043 19.472 19.2941C20.7093 19.784 22.0321 20.0219 23.3626 19.9939C24.2343 20.0255 25.0597 20.394 25.6652 21.0218C26.2707 21.6496 26.609 22.4879 26.609 23.3601C26.609 24.2324 26.2707 25.0706 25.6652 25.6984C25.0597 26.3263 24.2343 26.6948 23.3626 26.7264H9.99929C8.66877 26.6984 7.34605 26.9363 6.10866 27.4261C4.87127 27.9159 3.7441 28.6478 2.79323 29.5789C1.84237 30.51 1.08692 31.6215 0.571186 32.8483C0.0554488 34.0752 -0.210205 35.3926 -0.210205 36.7234C-0.210205 38.0542 0.0554488 39.3716 0.571186 40.5985C1.08692 41.8253 1.84237 42.9368 2.79323 43.8679C3.7441 44.799 4.87127 45.5309 6.10866 46.0207C7.34605 46.5105 8.66877 46.7484 9.99929 46.7205H43.4053C44.2846 46.7205 45.1279 46.3712 45.7497 45.7494C46.3714 45.1276 46.7207 44.2844 46.7207 43.4051Z" fill="#FFCF2B"/>
<path d="M70.1319 40.0894H56.7686C55.8893 40.0894 55.046 40.4387 54.4242 41.0604C53.8025 41.6822 53.4532 42.5255 53.4532 43.4048C53.4532 44.2841 53.8025 45.1274 54.4242 45.7491C55.046 46.3709 55.8893 46.7202 56.7686 46.7202H70.1319C71.0112 46.7202 71.8545 46.3709 72.4762 45.7491C73.098 45.1274 73.4473 44.2841 73.4473 43.4048C73.4473 42.5255 73.098 41.6822 72.4762 41.0604C71.8545 40.4387 71.0112 40.0894 70.1319 40.0894V40.0894Z" fill="#FFCF2B"/>
<path d="M41.5531 6.07333C41.9138 6.31361 42.3176 6.48174 42.7422 6.56843C42.9565 6.60872 43.174 6.62944 43.3921 6.63031C43.8276 6.6322 44.259 6.54651 44.6607 6.37834C44.8602 6.29525 45.0512 6.1931 45.231 6.07333C45.4113 5.95206 45.5799 5.81444 45.7349 5.66222C46.3559 5.0386 46.7054 4.19496 46.7075 3.31491C46.7131 3.09263 46.6953 2.87038 46.6544 2.65183C46.6106 2.43859 46.547 2.22992 46.4643 2.02853C46.3821 1.82869 46.2799 1.63764 46.1593 1.45828C45.9193 1.09453 45.608 0.783237 45.2443 0.54323C45.0654 0.421919 44.8742 0.319688 44.674 0.238212C44.472 0.16159 44.2634 0.103876 44.0507 0.0658112C43.6235 -0.0225881 43.1827 -0.0225881 42.7555 0.0658112C42.5435 0.108994 42.3363 0.172654 42.1366 0.255894C41.7351 0.424355 41.3691 0.667348 41.058 0.972022C40.7522 1.28049 40.509 1.64527 40.3419 2.04621C40.2617 2.24201 40.1995 2.44472 40.1562 2.65183C40.1121 2.86412 40.0898 3.08039 40.0899 3.29723C40.0922 4.17637 40.4399 5.0194 41.058 5.64453C41.2095 5.80236 41.3753 5.9459 41.5531 6.07333V6.07333Z" fill="#F49739"/>
<path d="M70.1319 26.7261H43.4053C42.526 26.7261 41.6827 27.0754 41.061 27.6971C40.4392 28.3189 40.0899 29.1622 40.0899 30.0415C40.0899 30.9208 40.4392 31.7641 41.061 32.3858C41.6827 33.0076 42.526 33.3569 43.4053 33.3569H70.1319C71.0112 33.3569 71.8545 33.0076 72.4762 32.3858C73.098 31.7641 73.4473 30.9208 73.4473 30.0415C73.4473 29.1622 73.098 28.3189 72.4762 27.6971C71.8545 27.0754 71.0112 26.7261 70.1319 26.7261V26.7261Z" fill="#F49739"/>
<path d="M56.7686 53.4578H23.3626C22.032 53.4298 20.7093 53.6677 19.4719 54.1575C18.2345 54.6474 17.1074 55.3793 16.1565 56.3103C15.2056 57.2414 14.4502 58.3529 13.9345 59.5798C13.4187 60.8066 13.1531 62.124 13.1531 63.4548C13.1531 64.7856 13.4187 66.1031 13.9345 67.3299C14.4502 68.5567 15.2056 69.6682 16.1565 70.5993C17.1074 71.5304 18.2345 72.2623 19.4719 72.7521C20.7093 73.242 22.032 73.4799 23.3626 73.4519H30.0597C30.939 73.4519 31.7823 73.1026 32.404 72.4808C33.0258 71.8591 33.3751 71.0158 33.3751 70.1365C33.3751 69.2572 33.0258 68.4139 32.404 67.7921C31.7823 67.1704 30.939 66.8211 30.0597 66.8211H23.3626C22.9102 66.8375 22.4593 66.7625 22.0365 66.6007C21.6138 66.439 21.228 66.1936 20.9022 65.8794C20.5764 65.5652 20.3173 65.1886 20.1403 64.772C19.9633 64.3554 19.8721 63.9075 19.8721 63.4548C19.8721 63.0022 19.9633 62.5542 20.1403 62.1376C20.3173 61.7211 20.5764 61.3444 20.9022 61.0302C21.228 60.716 21.6138 60.4707 22.0365 60.3089C22.4593 60.1471 22.9102 60.0722 23.3626 60.0886H56.7686C57.6479 60.0886 58.4912 59.7393 59.1129 59.1175C59.7347 58.4958 60.084 57.6525 60.084 56.7732C60.084 55.8939 59.7347 55.0506 59.1129 54.4288C58.4912 53.8071 57.6479 53.4578 56.7686 53.4578Z" fill="#F49739"/>
<path d="M94.8869 22.7787C94.8816 22.3833 94.9556 21.9908 95.1046 21.6244C95.2536 21.2581 95.4745 20.9253 95.7544 20.6459C96.0342 20.3665 96.3673 20.146 96.7339 19.9975C97.1004 19.8491 97.493 19.7756 97.8885 19.7816H109.974C114.231 19.7816 117.569 21.0414 119.744 23.1677C121.609 25.1343 122.617 27.761 122.546 30.4705V30.5677C122.546 35.9829 119.403 39.2717 114.859 40.6731L121.339 48.8422C121.919 49.5672 122.308 50.1993 122.308 51.1188C122.294 51.8625 121.985 52.5703 121.45 53.0867C120.914 53.6031 120.196 53.8858 119.452 53.8728C118.877 53.8815 118.309 53.7441 117.802 53.4735C117.295 53.2029 116.865 52.8079 116.552 52.3256L108.33 41.8312H100.837V50.9243C100.837 51.7133 100.524 52.47 99.9656 53.028C99.4077 53.5859 98.651 53.8993 97.862 53.8993C97.0729 53.8993 96.3162 53.5859 95.7583 53.028C95.2004 52.47 94.8869 51.7133 94.8869 50.9243V22.7787ZM109.541 36.562C113.794 36.562 116.503 34.3517 116.503 30.9037V30.8064C116.503 27.1816 113.891 25.1967 109.492 25.1967H100.837V36.562H109.541Z" fill="#04004D"/>
<path d="M138.182 54.2135C130.786 54.2135 125.079 48.8425 125.079 40.9519V40.859C125.079 33.5563 130.251 27.5576 137.554 27.5576C145.679 27.5576 149.693 34.2326 149.693 40.1341C149.701 40.5006 149.636 40.8652 149.501 41.206C149.365 41.5469 149.163 41.8572 148.906 42.1185C148.649 42.3799 148.342 42.5869 148.003 42.7275C147.664 42.868 147.301 42.9391 146.934 42.9367H130.932C131.56 47.0964 134.508 49.4172 138.279 49.4172C140.495 49.4337 142.643 48.6488 144.326 47.2069C144.74 46.845 145.276 46.6538 145.825 46.672C146.134 46.6695 146.441 46.7295 146.727 46.8483C147.013 46.9671 147.272 47.1423 147.489 47.3635C147.705 47.5847 147.875 47.8473 147.988 48.1356C148.101 48.4239 148.155 48.732 148.146 49.0414C148.128 49.7091 147.85 50.3435 147.372 50.8097C145.051 52.9094 142.147 54.2135 138.182 54.2135ZM143.986 39.0775C143.601 35.3024 141.373 32.3539 137.505 32.3539C133.929 32.3539 131.414 35.1123 130.875 39.0775H143.986Z" fill="#04004D"/>
<path d="M153.234 30.7577C153.226 30.3721 153.295 29.9888 153.438 29.6306C153.581 29.2723 153.794 28.9461 154.064 28.6714C154.335 28.3966 154.658 28.1788 155.014 28.0307C155.37 27.8826 155.752 27.8073 156.138 27.8092C156.526 27.8062 156.911 27.8805 157.27 28.0276C157.629 28.1747 157.955 28.3918 158.229 28.6662C158.504 28.9406 158.721 29.2668 158.868 29.6258C159.015 29.9849 159.089 30.3696 159.086 30.7577V31.9689C160.731 29.6967 162.954 27.5483 166.871 27.5483C170.544 27.5483 173.157 29.3166 174.514 32.0485C176.543 29.3387 179.249 27.5483 183.121 27.5483C188.682 27.5483 192.064 31.0848 192.064 37.3177V50.9551C192.071 51.3379 192.001 51.7182 191.858 52.0733C191.714 52.4284 191.501 52.7509 191.23 53.0217C190.96 53.2924 190.637 53.5057 190.282 53.6489C189.927 53.7921 189.547 53.8622 189.164 53.855C188.778 53.8632 188.395 53.7942 188.037 53.6521C187.679 53.5099 187.353 53.2974 187.078 53.0271C186.803 52.7568 186.585 52.4342 186.437 52.0783C186.289 51.7225 186.213 51.3406 186.215 50.9551V39.1257C186.215 35.0633 184.328 32.8884 181.039 32.8884C177.847 32.8884 175.575 35.0986 175.575 39.223V50.9728C175.546 51.7287 175.225 52.4438 174.68 52.9682C174.134 53.4926 173.407 53.7855 172.651 53.7855C171.894 53.7855 171.167 53.4926 170.622 52.9682C170.077 52.4438 169.756 51.7287 169.727 50.9728V39.0771C169.727 35.0986 167.79 32.8884 164.55 32.8884C161.31 32.8884 159.086 35.302 159.086 39.223V50.9728C159.086 51.7489 158.778 52.4933 158.229 53.0421C157.68 53.5909 156.936 53.8992 156.16 53.8992C155.384 53.8992 154.64 53.5909 154.091 53.0421C153.542 52.4933 153.234 51.7489 153.234 50.9728V30.7577Z" fill="#04004D"/>
<path d="M196.559 21.2184C196.559 19.4812 198.009 18.3672 199.892 18.3672C201.776 18.3672 203.23 19.4812 203.23 21.2184V21.5102C203.23 23.2519 201.78 24.4101 199.892 24.4101C198.005 24.4101 196.559 23.2519 196.559 21.5102V21.2184ZM197.001 30.7447C196.993 30.3593 197.062 29.9762 197.204 29.6179C197.346 29.2597 197.559 28.9335 197.829 28.6587C198.1 28.3839 198.422 28.166 198.778 28.0178C199.134 27.8697 199.516 27.7943 199.901 27.7962C200.289 27.7933 200.674 27.8675 201.034 28.0146C201.393 28.1617 201.72 28.3787 201.994 28.653C202.269 28.9273 202.486 29.2535 202.634 29.6126C202.782 29.9716 202.857 30.3565 202.854 30.7447V50.9598C202.854 51.736 202.546 52.4803 201.997 53.0291C201.448 53.5779 200.704 53.8862 199.928 53.8862C199.152 53.8862 198.407 53.5779 197.859 53.0291C197.31 52.4803 197.001 51.736 197.001 50.9598V30.7447Z" fill="#04004D"/>
<path d="M207.898 30.7575C207.89 30.372 207.96 29.9887 208.103 29.6305C208.245 29.2722 208.458 28.946 208.729 28.6713C208.999 28.3965 209.322 28.1787 209.678 28.0306C210.035 27.8825 210.417 27.8072 210.802 27.809C211.19 27.8061 211.575 27.8804 211.934 28.0275C212.293 28.1746 212.619 28.3917 212.894 28.6661C213.168 28.9405 213.385 29.2667 213.532 29.6257C213.68 29.9848 213.754 30.3695 213.751 30.7575V32.0174C215.395 29.648 217.765 27.5659 221.708 27.5659C227.455 27.5659 230.796 31.4383 230.796 37.3353V50.9727C230.804 51.3555 230.734 51.7358 230.59 52.0909C230.447 52.446 230.234 52.7685 229.963 53.0392C229.692 53.31 229.37 53.5233 229.015 53.6665C228.66 53.8097 228.279 53.8798 227.897 53.8726C227.511 53.8808 227.128 53.8118 226.77 53.6696C226.412 53.5274 226.085 53.3149 225.811 53.0446C225.536 52.7744 225.318 52.4518 225.17 52.0959C225.022 51.7401 224.946 51.3581 224.948 50.9727V39.1256C224.948 35.1471 222.963 32.8882 219.484 32.8882C216.098 32.8882 213.738 35.2577 213.738 39.2229V50.9727C213.738 51.7488 213.429 52.4931 212.88 53.042C212.332 53.5908 211.587 53.8991 210.811 53.8991C210.035 53.8991 209.291 53.5908 208.742 53.042C208.193 52.4931 207.885 51.7488 207.885 50.9727L207.898 30.7575Z" fill="#04004D"/>
<path d="M260.644 50.9725C260.614 51.7283 260.294 52.4435 259.748 52.9679C259.203 53.4922 258.476 53.7852 257.72 53.7852C256.963 53.7852 256.236 53.4922 255.691 52.9679C255.146 52.4435 254.825 51.7283 254.796 50.9725V49.3767C252.908 52.029 250.247 54.1641 246.087 54.1641C240.093 54.1641 234.24 49.3767 234.24 40.9025V40.8052C234.24 32.3399 239.987 27.5436 246.087 27.5436C250.295 27.5436 252.957 29.6257 254.796 32.0437V20.9924C254.825 20.2365 255.146 19.5214 255.691 18.997C256.236 18.4726 256.963 18.1797 257.72 18.1797C258.476 18.1797 259.203 18.4726 259.748 18.997C260.294 19.5214 260.614 20.2365 260.644 20.9924V50.9725ZM240.141 40.8052V40.9025C240.141 45.8314 243.528 49.0716 247.493 49.0716C251.458 49.0716 254.888 45.7872 254.888 40.9025V40.8052C254.888 35.8719 251.409 32.6317 247.493 32.6317C243.479 32.6449 240.141 35.7393 240.141 40.8185V40.8052Z" fill="#04004D"/>
<path d="M265.834 20.9928C265.831 20.6106 265.904 20.2316 266.049 19.8779C266.194 19.5242 266.407 19.2029 266.678 18.9326C266.948 18.6623 267.269 18.4485 267.623 18.3036C267.977 18.1587 268.356 18.0856 268.738 18.0885C269.122 18.085 269.504 18.1574 269.86 18.3016C270.217 18.4458 270.541 18.6589 270.815 18.9287C271.089 19.1985 271.307 19.5197 271.456 19.8739C271.606 20.2281 271.684 20.6083 271.686 20.9928V50.9729C271.686 51.749 271.378 52.4934 270.829 53.0422C270.281 53.591 269.536 53.8993 268.76 53.8993C267.984 53.8993 267.24 53.591 266.691 53.0422C266.142 52.4934 265.834 51.749 265.834 50.9729V20.9928Z" fill="#04004D"/>
<path d="M288.493 54.2135C281.093 54.2135 275.391 48.8425 275.391 40.9519V40.859C275.391 33.5563 280.563 27.5576 287.866 27.5576C295.986 27.5576 300 34.2326 300 40.1341C300.009 40.5004 299.944 40.8648 299.809 41.2057C299.675 41.5466 299.473 41.8569 299.216 42.1183C298.959 42.3797 298.653 42.5868 298.314 42.7274C297.976 42.868 297.613 42.9391 297.246 42.9367H281.239C281.867 47.0964 284.82 49.4172 288.591 49.4172C290.806 49.4339 292.952 48.6488 294.634 47.2069C295.048 46.8457 295.583 46.6546 296.132 46.672C296.442 46.6695 296.749 46.7295 297.034 46.8483C297.32 46.9671 297.579 47.1423 297.796 47.3635C298.013 47.5847 298.182 47.8473 298.295 48.1356C298.408 48.4239 298.462 48.732 298.453 49.0414C298.437 49.7095 298.159 50.3446 297.679 50.8097C295.358 52.9094 292.459 54.2135 288.493 54.2135ZM294.298 39.0775C293.909 35.3024 291.685 32.3539 287.817 32.3539C284.236 32.3539 281.726 35.1123 281.186 39.0775H294.298Z" fill="#04004D"/>
</g>
<defs>
<clipPath id="clip0_649:469">
<rect width="300" height="73.4517" fill="white"/>
</clipPath>
</defs>
</svg>
